<svg version="1.1" id="Layer_1" xmlns="http://www.w3.org/2000/svg" xmlns:xlink="http://www.w3.org/1999/xlink" x="0px" y="0px"
	 width="100%" viewBox="0 0 500 500" enable-background="new 0 0 500 500" xml:space="preserve">
<path fill="currentColor" opacity="1.000000" stroke="none" 
	d="
M339.000000,501.000000 
	C226.000031,501.000000 113.500053,501.000000 1.000060,501.000000 
	C1.000040,334.333405 1.000040,167.666794 1.000020,1.000150 
	C167.666565,1.000100 334.333130,1.000100 500.999756,1.000050 
	C500.999847,167.666519 500.999847,334.333038 500.999939,500.999786 
	C447.166656,501.000000 393.333344,501.000000 339.000000,501.000000 
M308.116302,226.468674 
	C308.068787,233.907303 308.099579,241.347610 307.938599,248.783783 
	C307.865082,252.179153 307.413513,255.566345 306.384552,259.269928 
	C295.538574,260.087646 287.095520,265.878387 278.310699,272.212402 
	C278.203796,270.065582 278.005157,267.918793 278.003632,265.771912 
	C277.976349,227.544418 277.972992,189.316910 278.287598,150.429886 
	C280.209991,142.632736 286.004791,137.804489 292.988983,136.425171 
	C299.542175,135.130997 306.773041,136.239517 310.617096,143.915329 
	C311.824554,146.326355 314.194885,148.411713 316.495636,149.957428 
	C319.818054,152.189484 323.406158,156.394760 327.732208,152.465103 
	C334.093719,146.686478 339.920502,140.319214 346.285156,133.889481 
	C338.033386,125.912781 330.890076,117.626053 321.143921,111.715607 
	C309.559326,104.690269 297.490631,99.210167 284.421448,96.105316 
	C275.376251,93.956444 266.147705,91.909714 256.913361,91.397049 
	C245.528351,90.764969 233.992767,91.172890 222.638062,92.299118 
	C215.918961,92.965569 209.494125,96.194153 202.812729,97.730247 
	C189.064346,100.891113 177.878311,108.802719 167.407516,117.444206 
	C152.180634,130.010849 141.442001,145.976624 135.117722,164.862076 
	C131.714249,175.025467 129.288437,185.511108 130.450775,196.005081 
	C131.502655,205.501770 129.022079,213.158676 123.853989,220.567459 
	C117.062317,230.303741 110.181412,239.984329 103.659714,249.899887 
	C99.816376,255.743301 102.544899,263.317596 109.027351,266.002960 
	C111.131569,266.874634 113.356239,267.451019 115.503746,268.223785 
	C119.605072,269.699585 121.497566,273.568207 120.132324,277.773926 
	C119.621010,279.349060 118.824722,280.830811 118.297157,282.401703 
	C116.265053,288.452667 116.948921,290.164764 122.365013,293.807220 
	C123.967728,294.885071 125.337708,296.308990 126.981049,297.717194 
	C126.289711,298.713470 125.894859,299.421082 125.371452,300.015503 
	C119.572098,306.601929 119.804794,308.444916 125.120682,315.054474 
	C126.836555,317.187958 127.406700,320.687988 127.484589,323.590118 
	C127.603287,328.012207 126.116043,332.537842 126.596375,336.877197 
	C127.609848,346.032990 134.941620,349.529877 142.574478,350.762115 
	C149.143753,351.822662 156.071411,350.786133 162.832962,350.497406 
	C169.290314,350.221649 175.768173,349.133850 182.181198,349.469482 
	C188.796371,349.815674 193.233017,354.583893 194.982178,360.466827 
	C197.086731,367.545074 198.386475,375.019348 198.824051,382.393982 
	C199.293839,390.311584 198.263458,398.310211 198.067017,406.277924 
	C197.919098,412.277313 199.734589,413.378784 205.136536,410.963562 
	C216.275208,405.983521 227.393616,400.956116 238.582047,396.090057 
	C246.932602,392.458221 255.421188,389.143341 263.765320,385.497406 
	C267.469177,383.878998 270.968353,381.792175 274.560455,379.917938 
	C274.429169,379.433136 274.297882,378.948303 274.166595,378.463501 
	C272.822845,378.463501 271.464111,378.593567 270.137970,378.440826 
	C264.624817,377.805878 258.449280,378.455231 253.739075,376.143219 
	C238.871216,368.845367 226.485794,355.280579 230.845490,333.445160 
	C233.331604,320.993591 244.884003,307.567139 257.350189,305.074005 
	C262.956207,303.952820 268.860870,304.396179 274.596497,303.804810 
	C276.162689,303.643311 278.624573,302.592438 278.945160,301.459930 
	C281.267151,293.257477 286.660858,287.191223 292.634674,281.723114 
	C295.614136,278.995880 299.513458,276.642792 303.389313,275.643921 
	C315.018402,272.646851 326.313232,273.577148 336.616669,280.627136 
	C339.059631,282.298737 341.326019,282.171082 343.360077,279.251770 
	C351.295715,267.862610 358.907227,256.463928 363.843140,243.219925 
	C369.528503,227.965164 373.673035,212.643250 372.907471,196.289169 
	C372.732849,192.558548 371.739105,188.866287 371.112366,185.096222 
	C365.645203,190.012543 360.996643,194.206696 356.330597,198.381302 
	C354.611023,199.919800 352.385559,201.113922 351.189148,202.977615 
	C346.154877,210.819916 339.431061,216.717194 331.134186,220.705338 
	C323.891205,224.186890 319.348053,223.208725 313.718628,217.563629 
	C312.977875,216.820816 312.811829,215.504868 312.379608,214.454361 
	C311.858612,214.847870 311.337646,215.241364 310.816681,215.634872 
	C310.169769,219.110199 309.522888,222.585510 308.116302,226.468674 
M296.615906,380.429901 
	C299.897247,389.843201 307.404480,393.561096 316.493103,394.837738 
	C326.374268,396.225677 339.115387,390.139130 343.103180,382.168427 
	C352.413879,363.558350 349.610321,345.780701 338.657684,328.934723 
	C336.502869,325.620483 335.278168,322.720856 337.142212,319.335480 
	C341.925903,310.647583 336.080414,297.172455 329.548920,292.008148 
	C322.911682,286.760254 309.748718,286.418030 301.692596,291.535736 
	C292.054840,297.658142 289.808899,312.036194 294.345276,323.682312 
	C291.160217,327.193176 288.157562,328.058929 284.454102,323.975159 
	C277.365692,316.158905 265.334503,315.713776 256.427521,319.618042 
	C245.701462,324.319641 242.792999,338.049591 244.321686,346.323517 
	C246.318695,357.132202 254.730392,363.850250 265.993408,363.900360 
	C269.697479,363.916840 273.451904,363.024933 277.103455,362.196503 
	C283.861481,360.663269 288.910339,364.970581 294.149628,367.634766 
	C295.864624,368.506836 295.477142,373.548553 296.009583,376.690460 
	C296.175049,377.666992 296.203735,378.666718 296.615906,380.429901 
M290.634308,172.839691 
	C293.805664,176.395935 296.939453,179.986526 300.156250,183.501205 
	C306.629669,190.574081 313.044037,197.706161 319.699127,204.605103 
	C322.395935,207.400696 328.122162,207.312927 330.680420,204.897095 
	C337.190643,198.749268 343.789093,192.688171 350.133728,186.372833 
	C372.599335,164.011047 395.034241,141.617111 417.255829,119.014191 
	C418.866089,117.376274 419.593048,113.793747 419.148773,111.410255 
	C417.711426,103.700104 412.356812,99.398979 405.029663,97.167168 
	C400.478729,95.780975 396.753296,96.257179 393.368225,100.032875 
	C387.502106,106.575859 381.409119,112.922958 375.248871,119.192635 
	C369.202179,125.346718 362.849915,131.201019 356.816864,137.367996 
	C347.409637,146.984070 338.222839,156.815811 328.814453,166.430771 
	C324.091888,171.257050 321.778137,170.813721 317.436035,165.885651 
	C312.189667,159.931274 306.580841,154.292114 301.038544,148.604584 
	C298.763092,146.269501 296.284241,145.490265 293.026337,147.376022 
	C284.088165,152.549637 283.596100,167.532166 290.634308,172.839691 
z"/>
</svg>